<?xml version="1.0" encoding="UTF-8"?>
<!DOCTYPE svg PUBLIC "-//W3C//DTD SVG 1.1//EN" "http://www.w3.org/Graphics/SVG/1.1/DTD/svg11.dtd">
<!-- Creator: CorelDRAW -->
<svg xmlns="http://www.w3.org/2000/svg" xml:space="preserve" width="2048px" height="2048px" style="shape-rendering:geometricPrecision; text-rendering:geometricPrecision; image-rendering:optimizeQuality; fill-rule:evenodd; clip-rule:evenodd"
viewBox="0 0 2048 2048"
 xmlns:xlink="http://www.w3.org/1999/xlink">
 <defs>
  <style type="text/css">
   <![CDATA[
    .fil2 {fill:none}
    .fil1 {fill:#9CCC65}
    .fil0 {fill:#C5E1A5}
    .fil5 {fill:#263238;fill-rule:nonzero}
    .fil3 {fill:#37474F;fill-rule:nonzero}
    .fil9 {fill:#455A64;fill-rule:nonzero}
    .fil10 {fill:#757575;fill-rule:nonzero}
    .fil8 {fill:#C23C13;fill-rule:nonzero}
    .fil7 {fill:#CF4317;fill-rule:nonzero}
    .fil4 {fill:#D84315;fill-rule:nonzero}
    .fil6 {fill:#E64A19;fill-rule:nonzero}
   ]]>
  </style>
   <clipPath id="id0">
    <path d="M1024 -0.0011811c565.541,0 1024,458.461 1024,1024 0,565.541 -458.461,1024 -1024,1024 -565.541,0 -1024,-458.461 -1024,-1024 0,-565.541 458.461,-1024 1024,-1024z"/>
   </clipPath>
 </defs>
 <g id="Layer_x0020_1">
  <metadata id="CorelCorpID_0Corel-Layer"/>
  <path class="fil0" d="M1024 -0.0011811c565.541,0 1024,458.461 1024,1024 0,565.541 -458.461,1024 -1024,1024 -565.541,0 -1024,-458.461 -1024,-1024 0,-565.541 458.461,-1024 1024,-1024z"/>
  <g style="clip-path:url(#id0)">
   <g id="_517160008">
    <g>
     <polygon id="_2603032881" class="fil1" points="1578.54,907.427 2714.42,2043.31 2715.88,2045.3 1580,909.42 "/>
     <polygon id="_260303240" class="fil1" points="1580,909.42 2715.88,2045.3 2717.13,2047.43 2718.14,2049.64 2718.92,2051.9 2719.46,2054.21 2719.78,2056.54 2719.88,2058.88 2719.76,2061.2 2719.42,2063.5 2718.86,2065.76 2718.1,2067.95 2717.12,2070.07 2715.95,2072.1 2714.57,2074.01 2713,2075.8 2711.23,2077.44 2709.27,2078.92 1573.39,943.033 1575.35,941.554 1577.11,939.914 1578.69,938.129 1580.07,936.216 1581.24,934.191 1582.21,932.072 1582.98,929.876 1583.53,927.62 1583.88,925.32 1584,922.993 1583.9,920.657 1583.58,918.327 1583.04,916.022 1582.26,913.758 1581.24,911.552 "/>
     <polygon id="_260303360" class="fil1" points="1414.9,804.72 2550.78,1940.6 2552.12,1942.4 2553.29,1944.32 2554.27,1946.36 2555.06,1948.5 2555.63,1950.73 2555.98,1953.05 2556.1,1955.43 1420.22,819.546 1420.1,817.163 1419.75,814.849 1419.18,812.616 1418.39,810.473 1417.41,808.436 1416.24,806.514 "/>
     <polygon id="_260303912" class="fil1" points="1008.17,480.768 2144.05,1616.65 2144.78,1617.86 2145.23,1619.31 2145.43,1620.99 2145.4,1622.88 2145.17,1625 2144.76,1627.33 2144.2,1629.86 2143.51,1632.6 2142.73,1635.52 2141.88,1638.64 2140.97,1641.94 2140.05,1645.41 2139.13,1649.06 2138.25,1652.87 2137.42,1656.84 2136.67,1660.96 2136.03,1665.23 2135.52,1669.64 2135.18,1674.19 2135.02,1678.87 2135.07,1683.67 2135.37,1688.58 2135.92,1693.61 2136.76,1698.75 2137.92,1703.99 2139.43,1709.32 2141.29,1714.74 2143.56,1720.24 2146.24,1725.82 2149.36,1731.47 2152.96,1737.19 1017.08,601.309 1013.48,595.593 1010.35,589.94 1007.67,584.36 1005.41,578.856 1003.54,573.436 1002.04,568.105 1000.88,562.868 1000.04,557.731 999.485,552.701 999.193,547.783 999.14,542.983 999.298,538.306 999.643,533.759 1000.15,529.348 1000.79,525.078 1001.53,520.956 1002.36,516.988 1003.25,513.176 1004.17,509.531 1005.09,506.057 1005.99,502.758 1006.85,499.642 1007.63,496.714 1008.31,493.981 1008.87,491.446 1009.28,489.118 1009.52,487.002 1009.55,485.103 1009.35,483.427 1008.9,481.98 "/>
     <polygon id="_260303984" class="fil1" points="938.015,552.903 2073.9,1688.79 2074.44,1689.39 2074.94,1690.15 2075.39,1691.07 2075.8,1692.12 2076.16,1693.3 2076.48,1694.61 2076.77,1696.02 2077.02,1697.53 2077.24,1699.13 2077.43,1700.81 2077.59,1702.56 2077.73,1704.37 2077.85,1706.23 2077.95,1708.12 2078.03,1710.05 2078.1,1711.99 2078.15,1713.94 2078.2,1715.89 2078.25,1717.83 2078.29,1719.75 2078.33,1721.64 2078.37,1723.48 2078.42,1725.27 2078.47,1727 2078.53,1728.66 2078.61,1730.24 2078.7,1731.72 2078.81,1733.1 2078.94,1734.37 2079.09,1735.52 2079.27,1736.53 943.386,600.649 943.209,599.636 943.057,598.489 942.928,597.22 942.819,595.838 942.727,594.355 942.652,592.779 942.588,591.121 942.535,589.391 942.489,587.599 942.446,585.755 942.407,583.869 942.367,581.951 942.323,580.011 942.274,578.061 942.216,576.109 942.147,574.165 942.065,572.241 941.966,570.344 941.848,568.487 941.709,566.679 941.546,564.93 941.356,563.249 941.137,561.649 940.886,560.137 940.6,558.724 940.277,557.422 939.915,556.238 939.51,555.185 939.06,554.271 938.563,553.506 "/>
     <polygon id="_260304152" class="fil1" points="948.261,610.264 2084.14,1746.15 2085.89,1748.33 2087.54,1750.46 2089.1,1752.55 2090.55,1754.61 2091.91,1756.65 2093.17,1758.66 2094.33,1760.67 2095.41,1762.68 2096.39,1764.69 2097.28,1766.72 2098.09,1768.77 2098.8,1770.85 2099.43,1772.97 2099.97,1775.14 2100.43,1777.35 2100.8,1779.63 964.924,643.751 964.548,641.471 964.09,639.254 963.548,637.089 962.919,634.972 962.205,632.891 961.402,630.84 960.51,628.812 959.527,626.797 958.453,624.791 957.285,622.782 956.024,620.763 954.668,618.729 953.214,616.669 951.662,614.578 950.012,612.445 "/>
     <polygon id="_260304200" class="fil1" points="1303.77,1338.92 2439.65,2474.81 2439.64,2474.81 2439.63,2474.81 2439.62,2474.82 2439.61,2474.82 2439.6,2474.82 2439.59,2474.82 2439.57,2474.83 2439.56,2474.83 1303.68,1338.95 1303.69,1338.94 1303.71,1338.94 1303.72,1338.94 1303.73,1338.94 1303.74,1338.93 1303.75,1338.93 1303.76,1338.93 "/>
     <polygon id="_260303888" class="fil1" points="1303.68,1338.95 2439.56,2474.83 2439.56,2503.18 1303.68,1367.29 "/>
     <polygon id="_260304032" class="fil1" points="1303.68,1367.29 2439.56,2503.18 2439.44,2505.56 2439.09,2507.87 2438.52,2510.11 2437.73,2512.25 2436.75,2514.29 2435.58,2516.21 2434.24,2518 2432.74,2519.66 2431.08,2521.16 2429.29,2522.5 2427.37,2523.67 2425.33,2524.65 2423.19,2525.44 2420.95,2526.01 2418.64,2526.36 2416.26,2526.49 1280.37,1390.6 1282.76,1390.48 1285.07,1390.13 1287.3,1389.56 1289.45,1388.77 1291.48,1387.79 1293.41,1386.62 1295.2,1385.28 1296.86,1383.78 1298.36,1382.12 1299.7,1380.33 1300.87,1378.4 1301.85,1376.37 1302.64,1374.22 1303.21,1371.99 1303.56,1369.68 "/>
     <polygon id="_260304392" class="fil1" points="1280.37,1390.6 2416.26,2526.49 2405.66,2526.49 1269.78,1390.6 "/>
     <polygon id="_260304248" class="fil1" points="1343.47,1440.25 2479.35,2576.14 2480.37,2577.22 2481.31,2578.36 2482.17,2579.54 2482.95,2580.77 2483.65,2582.05 2484.27,2583.36 2484.8,2584.7 2485.25,2586.07 2485.61,2587.46 2485.89,2588.87 2486.08,2590.3 2486.18,2591.73 2486.2,2593.18 1350.31,1457.29 1350.3,1455.85 1350.2,1454.41 1350.01,1452.99 1349.73,1451.57 1349.37,1450.18 1348.92,1448.81 1348.39,1447.47 1347.77,1446.16 1347.07,1444.89 1346.29,1443.66 1345.43,1442.47 1344.49,1441.34 "/>
     <polygon id="_260304056" class="fil1" points="964.924,643.751 2100.8,1779.63 2101.11,1782.4 2101.24,1785.26 2101.21,1788.19 2101.03,1791.19 2100.7,1794.24 2100.23,1797.33 2099.63,1800.43 2098.9,1803.56 2098.06,1806.68 2097.12,1809.78 2096.07,1812.86 2094.93,1815.9 2093.71,1818.88 2092.42,1821.8 2091.06,1824.64 2089.64,1827.39 2088.17,1830.03 2086.65,1832.55 2085.1,1834.95 2083.52,1837.2 2081.93,1839.29 2080.32,1841.21 2078.71,1842.95 2077.11,1844.5 2075.52,1845.83 2073.95,1846.95 2072.4,1847.82 2070.9,1848.45 2069.44,1848.83 2068.03,1848.92 2066.69,1848.73 2065.41,1848.24 929.529,712.362 930.806,712.851 932.152,713.04 933.558,712.943 935.018,712.573 936.523,711.942 938.064,711.063 939.635,709.949 941.226,708.615 942.831,707.07 944.441,705.33 946.047,703.408 947.643,701.315 949.22,699.067 950.769,696.673 952.285,694.149 953.756,691.506 955.177,688.759 956.538,685.92 957.833,683.001 959.052,680.017 960.189,676.978 961.235,673.9 962.181,670.795 963.021,667.674 963.745,664.552 964.347,661.443 964.817,658.358 965.148,655.309 965.332,652.312 965.362,649.378 965.228,646.519 "/>
     <polygon id="_260304272" class="fil1" points="744.211,1338.92 1880.09,2474.81 1870.14,2472.37 1860.37,2469.84 1850.77,2467.19 1841.37,2464.39 1832.16,2461.41 1823.17,2458.22 1814.39,2454.78 1805.84,2451.07 1797.52,2447.06 1789.46,2442.71 1781.65,2438 1774.11,2432.89 1766.84,2427.35 1759.86,2421.36 623.976,1285.48 630.958,1291.47 638.226,1297.01 645.769,1302.12 653.578,1306.83 661.643,1311.18 669.956,1315.19 678.506,1318.9 687.284,1322.33 696.282,1325.53 705.487,1328.51 714.892,1331.31 724.488,1333.96 734.264,1336.48 "/>
     <polygon id="_260303864" class="fil1" points="487.907,1568.45 1623.79,2704.33 1621,2704.01 1618.4,2703.08 1615.97,2701.58 480.091,1565.7 482.517,1567.2 485.122,1568.13 "/>
     <polygon id="_260304704" class="fil1" points="767.608,1390.6 1903.49,2526.49 1901.11,2526.36 1898.79,2526.01 1896.56,2525.44 1894.42,2524.65 1892.38,2523.67 1890.46,2522.5 1888.66,2521.16 752.782,1385.28 754.576,1386.62 756.498,1387.79 758.535,1388.77 760.678,1389.56 762.911,1390.13 765.225,1390.48 "/>
     <polygon id="_260304728" class="fil1" points="744.299,1338.95 1880.18,2474.83 1880.17,2474.83 1880.16,2474.82 1880.15,2474.82 1880.14,2474.82 1880.13,2474.82 1880.11,2474.81 1880.1,2474.81 1880.09,2474.81 744.211,1338.92 744.221,1338.93 744.233,1338.93 744.244,1338.93 744.255,1338.94 744.266,1338.94 744.277,1338.94 744.289,1338.94 "/>
     <polygon id="_260305016" class="fil1" points="778.219,1390.6 1914.1,2526.49 1903.49,2526.49 767.608,1390.6 "/>
     <polygon id="_260305088" class="fil1" points="558.221,995.559 1694.1,2131.44 1692.53,2131.32 1690.97,2131.08 1689.41,2130.74 1687.88,2130.3 1686.36,2129.74 1684.87,2129.07 1683.41,2128.29 1681.98,2127.39 546.103,991.511 547.526,992.405 548.986,993.186 550.478,993.856 551.996,994.413 553.533,994.862 555.088,995.202 556.652,995.434 "/>
     <polygon id="_260305328" class="fil1" points="546.103,991.511 1681.98,2127.39 1610.49,2078.92 474.613,943.033 "/>
     <polygon id="_260304872" class="fil1" points="474.613,943.033 1610.49,2078.92 1608.54,2077.44 472.654,941.554 "/>
     <polygon id="_260305352" class="fil1" points="943.386,600.649 2079.27,1736.53 2079.59,1737.86 2080.01,1739.15 2080.53,1740.41 2081.12,1741.64 2081.79,1742.82 2082.52,1743.97 2083.31,1745.08 2084.14,1746.15 948.261,610.264 947.428,609.199 946.641,608.09 945.91,606.942 945.242,605.755 944.648,604.53 944.134,603.27 943.711,601.975 "/>
     <polygon id="_260305304" class="fil1" points="1100.49,504.496 2236.37,1640.38 2236.92,1641.48 2237.17,1642.82 2237.13,1644.37 2236.84,1646.14 2236.33,1648.11 2235.61,1650.28 2234.73,1652.64 2233.7,1655.19 2232.54,1657.91 2231.3,1660.81 2229.98,1663.86 2228.63,1667.07 2227.27,1670.43 2225.91,1673.93 2224.6,1677.56 2223.35,1681.31 2222.2,1685.19 2221.17,1689.18 2220.29,1693.27 2219.57,1697.46 2219.06,1701.73 2218.77,1706.09 2218.74,1710.53 2218.99,1715.03 2219.54,1719.6 2220.43,1724.21 2221.67,1728.87 2223.31,1733.57 2225.35,1738.31 2227.84,1743.06 2230.79,1747.84 1094.91,611.956 1091.95,607.182 1089.47,602.425 1087.43,597.693 1085.79,592.992 1084.55,588.33 1083.66,583.713 1083.11,579.15 1082.86,574.647 1082.89,570.212 1083.18,565.852 1083.69,561.574 1084.4,557.386 1085.29,553.296 1086.32,549.309 1087.47,545.432 1088.72,541.675 1090.03,538.045 1091.38,534.546 1092.75,531.189 1094.1,527.979 1095.42,524.925 1096.66,522.031 1097.81,519.309 1098.85,516.762 1099.73,514.4 1100.45,512.228 1100.96,510.256 1101.25,508.489 1101.28,506.935 1101.04,505.602 "/>
     <polygon id="_260304632" class="fil1" points="1420.22,847.423 2556.1,1983.31 2556.1,1983.67 1420.22,847.786 "/>
     <polygon id="_260304776" class="fil1" points="1420.22,819.546 2556.1,1955.43 2556.1,1983.31 1420.22,847.423 "/>
     <polygon id="_260305400" class="fil1" points="1457.75,877.377 2593.63,2013.26 2595.94,2016.01 2598.14,2018.82 2600.23,2021.68 2602.22,2024.6 2604.1,2027.57 2605.87,2030.6 2607.55,2033.69 2609.14,2036.85 2610.63,2040.06 2612.03,2043.34 2613.34,2046.69 2614.57,2050.1 2615.72,2053.58 2616.79,2057.14 2617.78,2060.76 2618.7,2064.46 2619.55,2068.24 2620.33,2072.09 2621.05,2076.02 2621.7,2080.03 1485.82,944.148 1485.17,940.137 1484.45,936.206 1483.67,932.353 1482.82,928.579 1481.9,924.879 1480.91,921.253 1479.84,917.7 1478.69,914.218 1477.46,910.804 1476.15,907.458 1474.75,904.179 1473.26,900.963 1471.67,897.812 1469.99,894.721 1468.21,891.69 1466.33,888.718 1464.35,885.801 1462.26,882.94 1460.06,880.132 "/>
     <polygon id="_260305424" class="fil1" points="1501.9,991.511 2637.78,2127.39 2636.35,2128.29 2634.89,2129.07 2633.4,2129.74 2631.88,2130.3 2630.34,2130.75 2628.78,2131.09 2627.21,2131.32 2625.64,2131.44 1489.76,995.559 1491.33,995.435 1492.9,995.204 1494.46,994.865 1496,994.417 1497.52,993.858 1499.01,993.189 1500.47,992.407 "/>
     <polygon id="_260305544" class="fil1" points="1017.08,601.309 2152.96,1737.19 2153.88,1738.58 2154.78,1740 2155.67,1741.43 2156.55,1742.87 2157.42,1744.34 2158.26,1745.83 2159.09,1747.33 2159.91,1748.85 2160.71,1750.39 2161.49,1751.95 2162.25,1753.52 2162.99,1755.12 2163.71,1756.73 2164.41,1758.36 2165.09,1760.01 2165.75,1761.68 2166.39,1763.36 2167,1765.07 2167.59,1766.79 2168.15,1768.53 2168.69,1770.28 2169.21,1772.06 2169.69,1773.85 2170.15,1775.66 2170.59,1777.49 2170.99,1779.34 2171.37,1781.2 2171.71,1783.09 2172.03,1784.99 2172.31,1786.9 2172.57,1788.84 2172.79,1790.79 1036.91,654.91 1036.69,652.956 1036.43,651.022 1036.15,649.104 1035.83,647.203 1035.49,645.322 1035.11,643.457 1034.71,641.611 1034.27,639.781 1033.81,637.971 1033.32,636.178 1032.81,634.402 1032.27,632.645 1031.71,630.906 1031.12,629.186 1030.51,627.481 1029.87,625.797 1029.21,624.129 1028.53,622.48 1027.83,620.849 1027.11,619.237 1026.37,617.643 1025.61,616.066 1024.83,614.508 1024.03,612.968 1023.21,611.447 1022.38,609.943 1021.53,608.458 1020.67,606.991 1019.79,605.543 1018.9,604.113 1018,602.702 "/>
     <polygon id="_260305640" class="fil1" points="1573.39,943.033 2709.27,2078.92 2637.78,2127.39 1501.9,991.511 "/>
     <polygon id="_260306096" class="fil1" points="929.529,712.362 2065.41,1848.24 2064.86,1847.97 928.984,712.09 "/>
     <polygon id="_260306000" class="fil1" points="1036.91,654.91 2172.79,1790.79 2172.93,1793.11 2172.89,1795.63 2172.68,1798.32 2172.32,1801.16 2171.81,1804.15 2171.16,1807.25 2170.38,1810.46 2169.48,1813.75 2168.48,1817.11 2167.37,1820.51 2166.18,1823.94 2164.91,1827.39 2163.58,1830.82 2162.18,1834.23 2160.74,1837.59 2159.26,1840.89 2157.74,1844.11 2156.22,1847.22 2154.68,1850.22 2153.14,1853.08 2151.62,1855.79 2150.11,1858.32 2148.64,1860.66 2147.21,1862.79 2145.83,1864.69 2144.52,1866.34 2143.27,1867.73 2142.1,1868.83 2141.03,1869.63 2140.06,1870.12 2139.2,1870.26 2138.45,1870.04 1002.57,734.158 1003.31,734.375 1004.18,734.233 1005.15,733.752 1006.22,732.951 1007.39,731.848 1008.63,730.46 1009.95,728.807 1011.33,726.906 1012.76,724.777 1014.23,722.437 1015.74,719.905 1017.26,717.199 1018.8,714.338 1020.33,711.34 1021.86,708.224 1023.37,705.006 1024.86,701.708 1026.3,698.346 1027.7,694.939 1029.03,691.505 1030.3,688.062 1031.49,684.631 1032.59,681.227 1033.6,677.871 1034.5,674.579 1035.27,671.371 1035.92,668.266 1036.44,665.28 1036.8,662.434 1037.01,659.744 1037.05,657.23 "/>
     <polygon id="_260306120" class="fil1" points="1094.91,611.956 2230.79,1747.84 2234.02,1753.05 2236.76,1758.24 2239.04,1763.4 2240.88,1768.52 2242.3,1773.6 2243.34,1778.61 2244.01,1783.56 2244.33,1788.43 2244.34,1793.2 2244.06,1797.88 2243.5,1802.45 2242.71,1806.89 2241.69,1811.21 2240.48,1815.38 2239.09,1819.4 2237.56,1823.26 2235.91,1826.95 2234.16,1830.46 2232.34,1833.77 2230.47,1836.88 2228.57,1839.77 2226.68,1842.44 2224.81,1844.88 2222.98,1847.07 2221.23,1849.01 2219.58,1850.68 2218.05,1852.08 2216.67,1853.2 2215.46,1854.01 2214.44,1854.52 2213.64,1854.72 2213.09,1854.58 1077.21,718.7 1077.76,718.834 1078.56,718.64 1079.57,718.13 1080.79,717.314 1082.17,716.201 1083.7,714.803 1085.35,713.13 1087.1,711.192 1088.93,708.999 1090.8,706.561 1092.69,703.89 1094.59,700.994 1096.46,697.886 1098.28,694.574 1100.03,691.069 1101.68,687.381 1103.21,683.522 1104.6,679.499 1105.81,675.327 1106.82,671.012 1107.62,666.566 1108.17,661.999 1108.46,657.322 1108.45,652.544 1108.13,647.677 1107.46,642.73 1106.42,637.714 1105,632.639 1103.16,627.515 1100.88,622.354 1098.14,617.163 "/>
     <polygon id="_260305784" class="fil1" points="1489.76,995.559 2625.64,2131.44 2625.69,2133.36 2625.74,2135.29 2625.78,2137.23 2625.81,2139.19 2625.85,2141.16 2625.88,2143.15 2625.9,2145.15 2625.93,2147.17 2625.95,2149.2 2625.97,2151.24 2625.98,2153.3 2626,2155.38 2626.01,2157.47 2626.02,2159.58 2626.03,2161.7 2626.04,2163.83 2626.04,2165.98 2626.04,2168.15 2626.05,2170.34 2626.05,2172.53 2626.05,2174.75 2626.05,2176.98 2626.05,2179.22 2626.05,2181.49 2626.04,2183.76 2626.04,2186.06 2626.04,2188.37 2626.04,2190.69 2626.04,2193.04 2626.03,2195.4 2626.03,2197.77 2626.03,2200.17 1490.15,1064.29 1490.15,1061.89 1490.15,1059.52 1490.15,1057.16 1490.16,1054.81 1490.16,1052.49 1490.16,1050.18 1490.16,1047.88 1490.16,1045.6 1490.17,1043.34 1490.17,1041.1 1490.17,1038.87 1490.17,1036.65 1490.17,1034.45 1490.16,1032.27 1490.16,1030.1 1490.16,1027.95 1490.15,1025.81 1490.14,1023.69 1490.13,1021.59 1490.12,1019.5 1490.1,1017.42 1490.09,1015.36 1490.07,1013.31 1490.05,1011.28 1490.02,1009.27 1489.99,1007.26 1489.96,1005.28 1489.93,1003.31 1489.89,1001.35 1489.85,999.404 1489.81,997.475 "/>
     <polygon id="_260305568" class="fil1" points="1490.15,1064.29 2626.03,2200.17 2625.8,2219.65 2625.11,2238.13 2623.98,2255.63 2622.41,2272.17 2620.41,2287.8 2618,2302.54 2615.18,2316.43 2611.95,2329.48 2608.34,2341.74 2604.35,2353.24 2599.99,2364 2595.27,2374.06 2590.19,2383.45 2584.78,2392.19 2579.03,2400.32 2572.96,2407.87 2566.58,2414.88 2559.89,2421.36 2552.91,2427.35 2545.64,2432.89 2538.1,2438 2530.29,2442.71 2522.22,2447.06 2513.91,2451.07 2505.36,2454.78 2496.58,2458.22 2487.58,2461.41 2478.38,2464.39 2468.97,2467.19 2459.38,2469.84 2449.6,2472.37 2439.65,2474.81 1303.77,1338.92 1313.72,1336.48 1323.49,1333.96 1333.09,1331.31 1342.5,1328.51 1351.7,1325.53 1360.7,1322.33 1369.48,1318.9 1378.03,1315.19 1386.34,1311.18 1394.4,1306.83 1402.21,1302.12 1409.76,1297.01 1417.03,1291.47 1424.01,1285.48 1430.7,1278.99 1437.08,1271.99 1443.15,1264.44 1448.9,1256.31 1454.31,1247.56 1459.39,1238.18 1464.11,1228.12 1468.47,1217.36 1472.46,1205.86 1476.07,1193.6 1479.3,1180.54 1482.12,1166.66 1484.53,1151.92 1486.53,1136.29 1488.1,1119.74 1489.23,1102.25 1489.92,1083.77 "/>
     <polygon id="_260305832" class="fil1" points="1570.15,1462.07 2706.04,2597.95 2708.1,2600.47 2709.99,2603.43 2711.69,2606.81 2713.22,2610.54 2714.57,2614.61 2715.74,2618.96 2716.72,2623.55 2717.53,2628.35 2718.16,2633.31 2718.61,2638.39 2718.88,2643.55 2718.97,2648.75 2718.88,2653.96 2718.61,2659.12 2718.16,2664.2 2717.53,2669.16 2716.72,2673.96 2715.74,2678.55 2714.57,2682.9 2713.22,2686.96 2711.69,2690.7 2709.99,2694.07 2708.1,2697.04 2706.04,2699.55 2703.79,2701.58 2701.36,2703.08 2698.76,2704.01 2695.97,2704.33 1560.09,1568.45 1562.88,1568.13 1565.48,1567.2 1567.91,1565.7 1570.15,1563.67 1572.22,1561.15 1574.11,1558.19 1575.81,1554.82 1577.34,1551.08 1578.69,1547.01 1579.85,1542.67 1580.84,1538.07 1581.65,1533.28 1582.28,1528.32 1582.73,1523.24 1583,1518.07 1583.09,1512.87 1583,1507.67 1582.73,1502.5 1582.28,1497.42 1581.65,1492.46 1580.84,1487.67 1579.85,1483.07 1578.69,1478.72 1577.34,1474.66 1575.81,1470.92 1574.11,1467.55 1572.22,1464.59 "/>
     <polygon id="_260305496" class="fil1" points="1560.09,1568.45 2695.97,2704.33 1623.79,2704.33 487.907,1568.45 "/>
    </g>
    <path id="_517159744" class="fil1" d="M1485.82 944.148l61.128 -41.4508c10.95,-7.42442 25.7457,-4.41496 33.0449,6.72284 7.29922,11.139 4.34055,26.1886 -6.60945,33.613l-71.4898 48.4784c-3.74646,2.53937 -7.94292,3.85866 -12.1347,4.04764 0.529134,20.3551 0.388583,43.1126 0.388583,68.726 0,213.36 -79.3961,248.977 -186.379,274.64 -0.0295276,0.00826772 -0.0590552,0.0153543 -0.0885827,0.022441l0 28.3465c0,12.8728 -10.4362,23.3091 -23.3091,23.3091l-10.5921 0c0.0767717,0.0507874 0.154725,0.101575 0.231496,0.152362l69.9249 46.6158c6.88819,4.59213 10.5437,12.2162 10.376,19.9228l209.779 0c30.6603,0 30.6603,111.152 0,111.152l-1072.19 0c-30.6603,0 -30.6603,-111.152 0,-111.152l209.78 0c-0.167717,-7.7067 3.48662,-15.3307 10.376,-19.9228l69.9249 -46.6158c0.0767717,-0.0507874 0.153543,-0.101575 0.231496,-0.152362l-10.611 0c-12.8728,0 -23.3091,-10.4362 -23.3091,-23.3091l0 -28.3465c-0.0295276,-0.00708662 -0.0590552,-0.0141732 -0.0885827,-0.022441 -106.982,-25.663 -186.378,-61.2792 -186.378,-274.64 0,-25.6146 -0.140551,-48.3709 0.388583,-68.726 -4.18701,-0.19252 -8.37638,-1.51181 -12.1181,-4.04764l-71.4898 -48.4784c-10.95,-7.42442 -13.9087,-22.474 -6.60945,-33.613 7.29922,-11.1378 22.0949,-14.1473 33.0449,-6.72284l61.1126 41.4402c6.66024,-43.213 23.4449,-72.4666 65.5973,-96.3509l0 -0.36378 0 -27.8764c0,-12.8728 10.4362,-23.3091 23.3091,-23.3091l372.924 0 372.923 0c12.8728,0 23.3091,10.4362 23.3091,23.3091l0 27.8764 0 0.36378c42.1559,23.8855 58.9406,53.1426 65.5997,96.3615zm-386.218 -440.522c11.2973,8.00906 -38.7579,57.3473 -4.69843,108.33 37.1551,55.6087 -13.1835,109.945 -17.7,106.745 -3.29882,-1.95591 5.42008,-42.6992 3.5374,-60.7252 -0.890552,-8.5252 -4.34764,-16.252 -8.76615,-22.8673 -12.6756,-18.9721 -19.1752,-33.2551 -19.9512,-50.2205 -1.29331,-28.2154 38.0374,-84.4005 47.5784,-81.2611zm-92.4698 -23.8288c12.7689,9.05198 -31.017,60.202 9.94135,121.512 9.86221,14.7602 17.6445,32.6729 19.8307,53.6008 2.47087,23.648 -27.1158,83.5264 -34.3335,79.2485 -4.95237,-3.51024 7.46693,-49.9642 4.88504,-74.6753 -1.37835,-13.2071 -6.62126,-25.0087 -13.311,-35.0221 -16.6819,-24.9697 -25.226,-43.5685 -26.2181,-65.2075 -0.891733,-19.4776 26.9764,-84.1501 39.2055,-79.4564zm-58.8745 130.467c9.60946,11.7721 14.8807,21.1547 16.663,33.4866 4.19174,29.0091 -22.174,75.469 -35.3941,68.6115 -6.41457,-1.2 6.66969,-58.4351 6.14056,-62.0989 -0.408662,-2.8311 -2.92441,-6.58465 -7.76812,-12.5173 -5.91497,-7.24489 -10.9441,-16.4669 -13.2697,-27.9461 -3.40748,-16.8154 16.6559,-58.4811 22.7811,-57.3319 6.69922,3.68977 3.93307,38.1095 5.97284,48.1807 0.725197,3.57992 2.59961,6.83032 4.87441,9.61536z"/>
   </g>
  </g>
  <path class="fil2" d="M1024 -0.0011811c565.541,0 1024,458.461 1024,1024 0,565.541 -458.461,1024 -1024,1024 -565.541,0 -1024,-458.461 -1024,-1024 0,-565.541 458.461,-1024 1024,-1024z"/>
  <path class="fil3" d="M1270.01 1390.76c-10.7114,-7.13977 -25.1835,-4.24607 -32.3221,6.46536 -7.13977,10.7102 -4.24607,25.1823 6.46418,32.3221l69.926 46.6158c10.7102,7.13977 25.1823,4.24607 32.3221,-6.46536 7.13977,-10.7102 4.24489,-25.1823 -6.46536,-32.3221l-69.9249 -46.6158z"/>
  <path class="fil3" d="M803.845 1429.54c10.7114,-7.13977 13.6051,-21.6118 6.46536,-32.3221 -7.13977,-10.7114 -21.6118,-13.6051 -32.3221,-6.46536l-69.9249 46.6158c-10.7114,7.13977 -13.6051,21.6118 -6.46536,32.3221 7.13977,10.7114 21.6118,13.6051 32.3221,6.46536l69.9249 -46.6158z"/>
  <path class="fil3" d="M1047.28 1402.14c0,-12.8221 -10.3949,-23.2181 -23.2181,-23.2181 -12.8232,0 -23.2181,10.3961 -23.2181,23.2181l-0.120473 66.7146c0,12.8232 10.3949,23.2181 23.2169,23.2181 12.8232,0 23.2181,-10.3949 23.2181,-23.2181l0.121654 -66.7146z"/>
  <path class="fil4" d="M1023.99 1390.6l256.382 0c12.8728,0 23.3091,-10.4362 23.3091,-23.3091l0 -28.3465c107.028,-25.6654 186.468,-61.2426 186.468,-274.662 0,-117.834 2.96693,-175.197 -69.9272,-216.499l0 -28.2402c0,-12.8728 -10.4362,-23.3091 -23.3091,-23.3091l-372.923 0 -372.924 0c-12.8728,0 -23.3091,10.4362 -23.3091,23.3091l0 28.2402c-72.8942,41.302 -69.926,98.6646 -69.926,216.499 0,213.419 79.4398,248.997 186.467,274.662l0 28.3465c0,12.8728 10.4362,23.3091 23.3091,23.3091l256.383 0z"/>
  <path class="fil5" d="M501.049 902.697c-10.95,-7.42442 -25.7457,-4.41496 -33.0449,6.72284 -7.29922,11.139 -4.34055,26.1886 6.60945,33.613l71.4898 48.4784c10.95,7.42442 25.7457,4.41496 33.0449,-6.72402 7.29922,-11.1378 4.34055,-26.1886 -6.60945,-33.613l-71.4898 -48.4772z"/>
  <path class="fil5" d="M1573.39 943.033c10.95,-7.42442 13.9087,-22.474 6.60945,-33.613 -7.29922,-11.1378 -22.0949,-14.1473 -33.0449,-6.72284l-71.4898 48.4772c-10.95,7.42442 -13.9087,22.4752 -6.60945,33.613 7.29922,11.139 22.0949,14.1484 33.0449,6.72402l71.4898 -48.4784z"/>
  <path class="fil6" d="M1023.99 1390.6l-256.383 0c-12.8728,0 -23.3091,-10.4362 -23.3091,-23.3091l0 -28.3465c-107.027,-25.6654 -186.467,-61.2426 -186.467,-274.662 0,-117.834 -2.96811,-175.197 69.926,-216.499l0 -28.2402c0,-12.8728 10.4362,-23.3091 23.3091,-23.3091l372.924 0 0 594.365z"/>
  <path class="fil4" d="M1023.99 1390.6l256.382 0c12.8728,0 23.3091,-10.4362 23.3091,-23.3091l0 -28.3465c107.028,-25.6654 186.468,-61.2426 186.468,-274.662 0,-117.834 2.96693,-175.197 -69.9272,-216.499l0 -28.2402c0,-12.8728 -10.4362,-23.3091 -23.3091,-23.3091l-372.923 0 0 594.365z"/>
  <path class="fil7" d="M627.759 847.423l0 -27.8764c0,-12.8728 10.4362,-23.3091 23.3091,-23.3091l372.924 0 0 51.1855 -396.233 0z"/>
  <path class="fil8" d="M1420.22 847.423l0 -27.8764c0,-12.8728 -10.4362,-23.3091 -23.3091,-23.3091l-372.923 0 0 51.1855 396.232 0z"/>
  <path class="fil7" d="M1023.99 1390.6l-256.383 0c-12.8728,0 -23.3091,-10.4362 -23.3091,-23.3091l0 -28.3465 -0.0885827 -0.022441 279.781 0 0 51.678z"/>
  <path class="fil8" d="M1023.99 1390.6l256.382 0c12.8728,0 23.3091,-10.4362 23.3091,-23.3091l0 -28.3465 0.0885827 -0.022441 -279.78 0 0 51.678z"/>
  <path class="fil9" d="M487.907 1457.29c-30.6603,0 -30.6603,111.152 0,111.152l1072.19 0c30.6603,0 30.6603,-111.152 0,-111.152l-1072.19 0z"/>
  <path class="fil10" d="M1007.14 479.797c-12.228,-4.6937 -40.0973,59.9788 -39.2055,79.4564 0.990946,21.6378 9.53623,40.2378 26.2181,65.2075 6.68977,10.0134 11.9327,21.815 13.3122,35.0221 2.58071,24.711 -9.83859,71.1638 -4.88622,74.6753 7.21772,4.27796 36.8044,-55.6004 34.3335,-79.2485 -2.18622,-20.928 -9.96851,-38.8406 -19.8307,-53.602 -40.9583,-61.3087 2.82756,-112.459 -9.94135,-121.511z"/>
  <path class="fil10" d="M1099.6 503.626c-9.54095,-3.13937 -48.8717,53.0457 -47.5784,81.2611 0.775985,16.9654 7.2756,31.2484 19.9512,50.2217 4.41969,6.61418 7.8756,14.3398 8.76615,22.8662 1.8815,18.026 -6.83623,58.7693 -3.53622,60.7252 4.51536,3.20079 54.854,-51.137 17.6988,-106.745 -34.0595,-50.9835 15.9957,-100.321 4.69843,-108.33z"/>
  <path class="fil10" d="M929.529 712.364c13.2201,6.8563 39.5859,-39.6036 35.3941,-68.6138 -1.78228,-12.3307 -7.05355,-21.7146 -16.6642,-33.4855 -2.27362,-2.78504 -4.14803,-6.03544 -4.87323,-9.61536 -2.04095,-10.0713 0.726379,-44.491 -5.97284,-48.1807 -6.1252,-1.14921 -26.1886,40.5177 -22.7811,57.3319 2.32559,11.4803 7.35473,20.7012 13.2697,27.9461 4.8437,5.93268 7.36064,9.68741 7.7693,12.5162 0.529134,3.66496 -12.5563,60.9 -6.14174,62.1012z"/>
 </g>
</svg>
